<svg width="16" height="16" viewBox="0 0 16 16" fill="none" xmlns="http://www.w3.org/2000/svg">
<path d="M9.41465 6.58667C10.1953 7.36733 10.1953 8.63467 9.41465 9.41667C8.63398 10.1973 7.36665 10.1973 6.58465 9.41667C5.80398 8.636 5.80398 7.36867 6.58465 6.58667C7.36665 5.80467 8.63331 5.80467 9.41465 6.58667" stroke="#455A64" stroke-linecap="round" stroke-linejoin="round"/>
<path d="M8 12.6667C5.53933 12.6667 3.30733 11.3393 2.29733 9.27467V9.27467C2.10133 8.874 2 8.43934 2 8C2 7.56067 2.10133 7.126 2.29733 6.72534V6.72534C3.30733 4.66067 5.53933 3.33334 8 3.33334C10.4607 3.33334 12.6927 4.66067 13.7027 6.72534V6.72534C13.8987 7.126 14 7.56067 14 8" stroke="#455A64" stroke-linecap="round" stroke-linejoin="round"/>
<path d="M13.6667 12H11" stroke="#455A64" stroke-linecap="round" stroke-linejoin="round"/>
<path d="M12.3333 10.6667V13.3333" stroke="#455A64" stroke-linecap="round" stroke-linejoin="round"/>
</svg>
